{
	"asset":{
		"generator":"Khronos glTF Blender I/O v3.5.30",
		"version":"2.0"
	},
	"scene":0,
	"scenes":[
		{
			"name":"Scene",
			"nodes":[
				0,
				1,
				2,
				3,
				4,
				5,
				6,
				7,
				8,
				9,
				10,
				11,
				12,
				13,
				14,
				15,
				16,
				17,
				18,
				19
			]
		}
	],
	"nodes":[
		{
			"mesh":0,
			"name":"Cube",
			"translation":[
				-1.6702382564544678,
				0.4717772603034973,
				3.2000222206115723
			]
		},
		{
			"mesh":1,
			"name":"Plane",
			"scale":[
				6.942298889160156,
				6.942298889160156,
				6.942298889160156
			]
		},
		{
			"mesh":2,
			"name":"Icosphere",
			"scale":[
				1.3621817827224731,
				1.3621817827224731,
				1.3621817827224731
			],
			"translation":[
				-0.35886192321777344,
				1.0199328660964966,
				-0.44481199979782104
			]
		},
		{
			"mesh":3,
			"name":"Cone",
			"translation":[
				1.4808168411254883,
				0.7587416172027588,
				-4.288064956665039
			]
		},
		{
			"mesh":4,
			"name":"Cylinder",
			"translation":[
				-2.7421748638153076,
				0.5560013651847839,
				-5.680482864379883
			]
		},
		{
			"mesh":5,
			"name":"Cube.001",
			"translation":[
				-1.6702382564544678,
				0.4717772603034973,
				-10.745849609375
			]
		},
		{
			"mesh":6,
			"name":"Plane.001",
			"scale":[
				6.942298889160156,
				6.942298889160156,
				6.942298889160156
			],
			"translation":[
				0,
				0,
				-13.945871353149414
			]
		},
		{
			"mesh":7,
			"name":"Icosphere.001",
			"scale":[
				1.3621817827224731,
				1.3621817827224731,
				1.3621817827224731
			],
			"translation":[
				-0.35886192321777344,
				1.0199328660964966,
				-14.3906831741333
			]
		},
		{
			"mesh":8,
			"name":"Cone.001",
			"translation":[
				1.4808168411254883,
				0.7587416172027588,
				-18.233936309814453
			]
		},
		{
			"mesh":9,
			"name":"Cylinder.001",
			"translation":[
				-2.7421748638153076,
				0.5560013651847839,
				-19.626354217529297
			]
		},
		{
			"mesh":10,
			"name":"Cube.002",
			"translation":[
				-1.6702382564544678,
				0.4717772603034973,
				17.247377395629883
			]
		},
		{
			"mesh":11,
			"name":"Plane.002",
			"scale":[
				6.942298889160156,
				6.942298889160156,
				6.942298889160156
			],
			"translation":[
				0,
				0,
				14.047355651855469
			]
		},
		{
			"mesh":12,
			"name":"Icosphere.002",
			"scale":[
				1.3621817827224731,
				1.3621817827224731,
				1.3621817827224731
			],
			"translation":[
				-0.35886192321777344,
				1.0199328660964966,
				13.602543830871582
			]
		},
		{
			"mesh":13,
			"name":"Cone.002",
			"translation":[
				1.4808168411254883,
				0.7587416172027588,
				9.75929069519043
			]
		},
		{
			"mesh":14,
			"name":"Cylinder.002",
			"translation":[
				-2.7421748638153076,
				0.5560013651847839,
				8.366872787475586
			]
		},
		{
			"mesh":15,
			"name":"Cube.003",
			"translation":[
				-1.6702382564544678,
				0.4717772603034973,
				-24.741697311401367
			]
		},
		{
			"mesh":16,
			"name":"Plane.003",
			"scale":[
				6.942298889160156,
				6.942298889160156,
				6.942298889160156
			],
			"translation":[
				0,
				0,
				-27.94171905517578
			]
		},
		{
			"mesh":17,
			"name":"Icosphere.003",
			"scale":[
				1.3621817827224731,
				1.3621817827224731,
				1.3621817827224731
			],
			"translation":[
				-0.35886192321777344,
				1.0199328660964966,
				-28.386531829833984
			]
		},
		{
			"mesh":18,
			"name":"Cone.003",
			"translation":[
				1.4808168411254883,
				0.7587416172027588,
				-32.22978210449219
			]
		},
		{
			"mesh":19,
			"name":"Cylinder.003",
			"translation":[
				-2.7421748638153076,
				0.5560013651847839,
				-33.62220001220703
			]
		}
	],
	"materials":[
		{
			"doubleSided":true,
			"name":"Material.006",
			"pbrMetallicRoughness":{
				"baseColorFactor":[
					0.800000011920929,
					0.800000011920929,
					0.800000011920929,
					1
				],
				"metallicFactor":0,
				"roughnessFactor":0.5
			}
		},
		{
			"doubleSided":true,
			"name":"Material.001",
			"pbrMetallicRoughness":{
				"baseColorFactor":[
					0.800000011920929,
					0.800000011920929,
					0.800000011920929,
					1
				],
				"metallicFactor":0,
				"roughnessFactor":0.5
			}
		},
		{
			"doubleSided":true,
			"name":"Material.002",
			"pbrMetallicRoughness":{
				"baseColorFactor":[
					0.8000000715255737,
					0.07716530561447144,
					0.10579372942447662,
					1
				],
				"metallicFactor":0,
				"roughnessFactor":0.5
			}
		},
		{
			"doubleSided":true,
			"name":"Material.003",
			"pbrMetallicRoughness":{
				"baseColorFactor":[
					0.16751240193843842,
					0.10309820622205734,
					0.8000000715255737,
					1
				],
				"metallicFactor":0,
				"roughnessFactor":0.5
			}
		},
		{
			"doubleSided":true,
			"name":"Material.005",
			"pbrMetallicRoughness":{
				"baseColorFactor":[
					0.8000000715255737,
					0.32141292095184326,
					0,
					1
				],
				"metallicFactor":0,
				"roughnessFactor":0.5
			}
		}
	],
	"meshes":[
		{
			"name":"Cube",
			"primitives":[
				{
					"attributes":{
						"POSITION":0,
						"TEXCOORD_0":1,
						"NORMAL":2
					},
					"indices":3,
					"material":0
				}
			]
		},
		{
			"name":"Plane",
			"primitives":[
				{
					"attributes":{
						"POSITION":4,
						"TEXCOORD_0":5,
						"NORMAL":6
					},
					"indices":7,
					"material":1
				}
			]
		},
		{
			"name":"Icosphere",
			"primitives":[
				{
					"attributes":{
						"POSITION":8,
						"TEXCOORD_0":9,
						"NORMAL":10
					},
					"indices":11,
					"material":2
				}
			]
		},
		{
			"name":"Cone",
			"primitives":[
				{
					"attributes":{
						"POSITION":12,
						"TEXCOORD_0":13,
						"NORMAL":14
					},
					"indices":15,
					"material":3
				}
			]
		},
		{
			"name":"Cylinder",
			"primitives":[
				{
					"attributes":{
						"POSITION":16,
						"TEXCOORD_0":17,
						"NORMAL":18
					},
					"indices":19,
					"material":4
				}
			]
		},
		{
			"name":"Cube.001",
			"primitives":[
				{
					"attributes":{
						"POSITION":20,
						"TEXCOORD_0":21,
						"NORMAL":22
					},
					"indices":3,
					"material":0
				}
			]
		},
		{
			"name":"Plane.001",
			"primitives":[
				{
					"attributes":{
						"POSITION":23,
						"TEXCOORD_0":24,
						"NORMAL":25
					},
					"indices":7,
					"material":1
				}
			]
		},
		{
			"name":"Icosphere.001",
			"primitives":[
				{
					"attributes":{
						"POSITION":26,
						"TEXCOORD_0":27,
						"NORMAL":28
					},
					"indices":11,
					"material":2
				}
			]
		},
		{
			"name":"Cone.001",
			"primitives":[
				{
					"attributes":{
						"POSITION":29,
						"TEXCOORD_0":30,
						"NORMAL":31
					},
					"indices":15,
					"material":3
				}
			]
		},
		{
			"name":"Cylinder.001",
			"primitives":[
				{
					"attributes":{
						"POSITION":32,
						"TEXCOORD_0":33,
						"NORMAL":34
					},
					"indices":19,
					"material":4
				}
			]
		},
		{
			"name":"Cube.002",
			"primitives":[
				{
					"attributes":{
						"POSITION":35,
						"TEXCOORD_0":36,
						"NORMAL":37
					},
					"indices":3,
					"material":0
				}
			]
		},
		{
			"name":"Plane.002",
			"primitives":[
				{
					"attributes":{
						"POSITION":38,
						"TEXCOORD_0":39,
						"NORMAL":40
					},
					"indices":7,
					"material":1
				}
			]
		},
		{
			"name":"Icosphere.002",
			"primitives":[
				{
					"attributes":{
						"POSITION":41,
						"TEXCOORD_0":42,
						"NORMAL":43
					},
					"indices":11,
					"material":2
				}
			]
		},
		{
			"name":"Cone.002",
			"primitives":[
				{
					"attributes":{
						"POSITION":44,
						"TEXCOORD_0":45,
						"NORMAL":46
					},
					"indices":15,
					"material":3
				}
			]
		},
		{
			"name":"Cylinder.002",
			"primitives":[
				{
					"attributes":{
						"POSITION":47,
						"TEXCOORD_0":48,
						"NORMAL":49
					},
					"indices":19,
					"material":4
				}
			]
		},
		{
			"name":"Cube.003",
			"primitives":[
				{
					"attributes":{
						"POSITION":50,
						"TEXCOORD_0":51,
						"NORMAL":52
					},
					"indices":3,
					"material":0
				}
			]
		},
		{
			"name":"Plane.003",
			"primitives":[
				{
					"attributes":{
						"POSITION":53,
						"TEXCOORD_0":54,
						"NORMAL":55
					},
					"indices":7,
					"material":1
				}
			]
		},
		{
			"name":"Icosphere.003",
			"primitives":[
				{
					"attributes":{
						"POSITION":56,
						"TEXCOORD_0":57,
						"NORMAL":58
					},
					"indices":11,
					"material":2
				}
			]
		},
		{
			"name":"Cone.003",
			"primitives":[
				{
					"attributes":{
						"POSITION":59,
						"TEXCOORD_0":60,
						"NORMAL":61
					},
					"indices":15,
					"material":3
				}
			]
		},
		{
			"name":"Cylinder.003",
			"primitives":[
				{
					"attributes":{
						"POSITION":62,
						"TEXCOORD_0":63,
						"NORMAL":64
					},
					"indices":19,
					"material":4
				}
			]
		}
	],
	"accessors":[
		{
			"bufferView":0,
			"componentType":5126,
			"count":24,
			"max":[
				1,
				1,
				1
			],
			"min":[
				-1,
				-1,
				-1
			],
			"type":"VEC3"
		},
		{
			"bufferView":1,
			"componentType":5126,
			"count":24,
			"type":"VEC2"
		},
		{
			"bufferView":2,
			"componentType":5126,
			"count":24,
			"type":"VEC3"
		},
		{
			"bufferView":3,
			"componentType":5123,
			"count":36,
			"type":"SCALAR"
		},
		{
			"bufferView":4,
			"componentType":5126,
			"count":4,
			"max":[
				1,
				0,
				1
			],
			"min":[
				-1,
				0,
				-1
			],
			"type":"VEC3"
		},
		{
			"bufferView":5,
			"componentType":5126,
			"count":4,
			"type":"VEC2"
		},
		{
			"bufferView":6,
			"componentType":5126,
			"count":4,
			"type":"VEC3"
		},
		{
			"bufferView":7,
			"componentType":5123,
			"count":6,
			"type":"SCALAR"
		},
		{
			"bufferView":8,
			"componentType":5126,
			"count":240,
			"max":[
				0.9510578513145447,
				1,
				0.9999999403953552
			],
			"min":[
				-0.9510578513145447,
				-1,
				-0.9999999403953552
			],
			"type":"VEC3"
		},
		{
			"bufferView":9,
			"componentType":5126,
			"count":240,
			"type":"VEC2"
		},
		{
			"bufferView":10,
			"componentType":5126,
			"count":240,
			"type":"VEC3"
		},
		{
			"bufferView":11,
			"componentType":5123,
			"count":240,
			"type":"SCALAR"
		},
		{
			"bufferView":12,
			"componentType":5126,
			"count":128,
			"max":[
				1,
				1,
				1
			],
			"min":[
				-1,
				-1,
				-1
			],
			"type":"VEC3"
		},
		{
			"bufferView":13,
			"componentType":5126,
			"count":128,
			"type":"VEC2"
		},
		{
			"bufferView":14,
			"componentType":5126,
			"count":128,
			"type":"VEC3"
		},
		{
			"bufferView":15,
			"componentType":5123,
			"count":186,
			"type":"SCALAR"
		},
		{
			"bufferView":16,
			"componentType":5126,
			"count":192,
			"max":[
				1,
				1,
				1
			],
			"min":[
				-1,
				-1,
				-1
			],
			"type":"VEC3"
		},
		{
			"bufferView":17,
			"componentType":5126,
			"count":192,
			"type":"VEC2"
		},
		{
			"bufferView":18,
			"componentType":5126,
			"count":192,
			"type":"VEC3"
		},
		{
			"bufferView":19,
			"componentType":5123,
			"count":372,
			"type":"SCALAR"
		},
		{
			"bufferView":20,
			"componentType":5126,
			"count":24,
			"max":[
				1,
				1,
				1
			],
			"min":[
				-1,
				-1,
				-1
			],
			"type":"VEC3"
		},
		{
			"bufferView":21,
			"componentType":5126,
			"count":24,
			"type":"VEC2"
		},
		{
			"bufferView":22,
			"componentType":5126,
			"count":24,
			"type":"VEC3"
		},
		{
			"bufferView":23,
			"componentType":5126,
			"count":4,
			"max":[
				1,
				0,
				1
			],
			"min":[
				-1,
				0,
				-1
			],
			"type":"VEC3"
		},
		{
			"bufferView":24,
			"componentType":5126,
			"count":4,
			"type":"VEC2"
		},
		{
			"bufferView":25,
			"componentType":5126,
			"count":4,
			"type":"VEC3"
		},
		{
			"bufferView":26,
			"componentType":5126,
			"count":240,
			"max":[
				0.9510578513145447,
				1,
				0.9999999403953552
			],
			"min":[
				-0.9510578513145447,
				-1,
				-0.9999999403953552
			],
			"type":"VEC3"
		},
		{
			"bufferView":27,
			"componentType":5126,
			"count":240,
			"type":"VEC2"
		},
		{
			"bufferView":28,
			"componentType":5126,
			"count":240,
			"type":"VEC3"
		},
		{
			"bufferView":29,
			"componentType":5126,
			"count":128,
			"max":[
				1,
				1,
				1
			],
			"min":[
				-1,
				-1,
				-1
			],
			"type":"VEC3"
		},
		{
			"bufferView":30,
			"componentType":5126,
			"count":128,
			"type":"VEC2"
		},
		{
			"bufferView":31,
			"componentType":5126,
			"count":128,
			"type":"VEC3"
		},
		{
			"bufferView":32,
			"componentType":5126,
			"count":192,
			"max":[
				1,
				1,
				1
			],
			"min":[
				-1,
				-1,
				-1
			],
			"type":"VEC3"
		},
		{
			"bufferView":33,
			"componentType":5126,
			"count":192,
			"type":"VEC2"
		},
		{
			"bufferView":34,
			"componentType":5126,
			"count":192,
			"type":"VEC3"
		},
		{
			"bufferView":35,
			"componentType":5126,
			"count":24,
			"max":[
				1,
				1,
				1
			],
			"min":[
				-1,
				-1,
				-1
			],
			"type":"VEC3"
		},
		{
			"bufferView":36,
			"componentType":5126,
			"count":24,
			"type":"VEC2"
		},
		{
			"bufferView":37,
			"componentType":5126,
			"count":24,
			"type":"VEC3"
		},
		{
			"bufferView":38,
			"componentType":5126,
			"count":4,
			"max":[
				1,
				0,
				1
			],
			"min":[
				-1,
				0,
				-1
			],
			"type":"VEC3"
		},
		{
			"bufferView":39,
			"componentType":5126,
			"count":4,
			"type":"VEC2"
		},
		{
			"bufferView":40,
			"componentType":5126,
			"count":4,
			"type":"VEC3"
		},
		{
			"bufferView":41,
			"componentType":5126,
			"count":240,
			"max":[
				0.9510578513145447,
				1,
				0.9999999403953552
			],
			"min":[
				-0.9510578513145447,
				-1,
				-0.9999999403953552
			],
			"type":"VEC3"
		},
		{
			"bufferView":42,
			"componentType":5126,
			"count":240,
			"type":"VEC2"
		},
		{
			"bufferView":43,
			"componentType":5126,
			"count":240,
			"type":"VEC3"
		},
		{
			"bufferView":44,
			"componentType":5126,
			"count":128,
			"max":[
				1,
				1,
				1
			],
			"min":[
				-1,
				-1,
				-1
			],
			"type":"VEC3"
		},
		{
			"bufferView":45,
			"componentType":5126,
			"count":128,
			"type":"VEC2"
		},
		{
			"bufferView":46,
			"componentType":5126,
			"count":128,
			"type":"VEC3"
		},
		{
			"bufferView":47,
			"componentType":5126,
			"count":192,
			"max":[
				1,
				1,
				1
			],
			"min":[
				-1,
				-1,
				-1
			],
			"type":"VEC3"
		},
		{
			"bufferView":48,
			"componentType":5126,
			"count":192,
			"type":"VEC2"
		},
		{
			"bufferView":49,
			"componentType":5126,
			"count":192,
			"type":"VEC3"
		},
		{
			"bufferView":50,
			"componentType":5126,
			"count":24,
			"max":[
				1,
				1,
				1
			],
			"min":[
				-1,
				-1,
				-1
			],
			"type":"VEC3"
		},
		{
			"bufferView":51,
			"componentType":5126,
			"count":24,
			"type":"VEC2"
		},
		{
			"bufferView":52,
			"componentType":5126,
			"count":24,
			"type":"VEC3"
		},
		{
			"bufferView":53,
			"componentType":5126,
			"count":4,
			"max":[
				1,
				0,
				1
			],
			"min":[
				-1,
				0,
				-1
			],
			"type":"VEC3"
		},
		{
			"bufferView":54,
			"componentType":5126,
			"count":4,
			"type":"VEC2"
		},
		{
			"bufferView":55,
			"componentType":5126,
			"count":4,
			"type":"VEC3"
		},
		{
			"bufferView":56,
			"componentType":5126,
			"count":240,
			"max":[
				0.9510578513145447,
				1,
				0.9999999403953552
			],
			"min":[
				-0.9510578513145447,
				-1,
				-0.9999999403953552
			],
			"type":"VEC3"
		},
		{
			"bufferView":57,
			"componentType":5126,
			"count":240,
			"type":"VEC2"
		},
		{
			"bufferView":58,
			"componentType":5126,
			"count":240,
			"type":"VEC3"
		},
		{
			"bufferView":59,
			"componentType":5126,
			"count":128,
			"max":[
				1,
				1,
				1
			],
			"min":[
				-1,
				-1,
				-1
			],
			"type":"VEC3"
		},
		{
			"bufferView":60,
			"componentType":5126,
			"count":128,
			"type":"VEC2"
		},
		{
			"bufferView":61,
			"componentType":5126,
			"count":128,
			"type":"VEC3"
		},
		{
			"bufferView":62,
			"componentType":5126,
			"count":192,
			"max":[
				1,
				1,
				1
			],
			"min":[
				-1,
				-1,
				-1
			],
			"type":"VEC3"
		},
		{
			"bufferView":63,
			"componentType":5126,
			"count":192,
			"type":"VEC2"
		},
		{
			"bufferView":64,
			"componentType":5126,
			"count":192,
			"type":"VEC3"
		}
	],
	"bufferViews":[
		{
			"buffer":0,
			"byteLength":288,
			"byteOffset":0,
			"target":34962
		},
		{
			"buffer":0,
			"byteLength":192,
			"byteOffset":288,
			"target":34962
		},
		{
			"buffer":0,
			"byteLength":288,
			"byteOffset":480,
			"target":34962
		},
		{
			"buffer":0,
			"byteLength":72,
			"byteOffset":768,
			"target":34963
		},
		{
			"buffer":0,
			"byteLength":48,
			"byteOffset":840,
			"target":34962
		},
		{
			"buffer":0,
			"byteLength":32,
			"byteOffset":888,
			"target":34962
		},
		{
			"buffer":0,
			"byteLength":48,
			"byteOffset":920,
			"target":34962
		},
		{
			"buffer":0,
			"byteLength":12,
			"byteOffset":968,
			"target":34963
		},
		{
			"buffer":0,
			"byteLength":2880,
			"byteOffset":980,
			"target":34962
		},
		{
			"buffer":0,
			"byteLength":1920,
			"byteOffset":3860,
			"target":34962
		},
		{
			"buffer":0,
			"byteLength":2880,
			"byteOffset":5780,
			"target":34962
		},
		{
			"buffer":0,
			"byteLength":480,
			"byteOffset":8660,
			"target":34963
		},
		{
			"buffer":0,
			"byteLength":1536,
			"byteOffset":9140,
			"target":34962
		},
		{
			"buffer":0,
			"byteLength":1024,
			"byteOffset":10676,
			"target":34962
		},
		{
			"buffer":0,
			"byteLength":1536,
			"byteOffset":11700,
			"target":34962
		},
		{
			"buffer":0,
			"byteLength":372,
			"byteOffset":13236,
			"target":34963
		},
		{
			"buffer":0,
			"byteLength":2304,
			"byteOffset":13608,
			"target":34962
		},
		{
			"buffer":0,
			"byteLength":1536,
			"byteOffset":15912,
			"target":34962
		},
		{
			"buffer":0,
			"byteLength":2304,
			"byteOffset":17448,
			"target":34962
		},
		{
			"buffer":0,
			"byteLength":744,
			"byteOffset":19752,
			"target":34963
		},
		{
			"buffer":0,
			"byteLength":288,
			"byteOffset":20496,
			"target":34962
		},
		{
			"buffer":0,
			"byteLength":192,
			"byteOffset":20784,
			"target":34962
		},
		{
			"buffer":0,
			"byteLength":288,
			"byteOffset":20976,
			"target":34962
		},
		{
			"buffer":0,
			"byteLength":48,
			"byteOffset":21264,
			"target":34962
		},
		{
			"buffer":0,
			"byteLength":32,
			"byteOffset":21312,
			"target":34962
		},
		{
			"buffer":0,
			"byteLength":48,
			"byteOffset":21344,
			"target":34962
		},
		{
			"buffer":0,
			"byteLength":2880,
			"byteOffset":21392,
			"target":34962
		},
		{
			"buffer":0,
			"byteLength":1920,
			"byteOffset":24272,
			"target":34962
		},
		{
			"buffer":0,
			"byteLength":2880,
			"byteOffset":26192,
			"target":34962
		},
		{
			"buffer":0,
			"byteLength":1536,
			"byteOffset":29072,
			"target":34962
		},
		{
			"buffer":0,
			"byteLength":1024,
			"byteOffset":30608,
			"target":34962
		},
		{
			"buffer":0,
			"byteLength":1536,
			"byteOffset":31632,
			"target":34962
		},
		{
			"buffer":0,
			"byteLength":2304,
			"byteOffset":33168,
			"target":34962
		},
		{
			"buffer":0,
			"byteLength":1536,
			"byteOffset":35472,
			"target":34962
		},
		{
			"buffer":0,
			"byteLength":2304,
			"byteOffset":37008,
			"target":34962
		},
		{
			"buffer":0,
			"byteLength":288,
			"byteOffset":39312,
			"target":34962
		},
		{
			"buffer":0,
			"byteLength":192,
			"byteOffset":39600,
			"target":34962
		},
		{
			"buffer":0,
			"byteLength":288,
			"byteOffset":39792,
			"target":34962
		},
		{
			"buffer":0,
			"byteLength":48,
			"byteOffset":40080,
			"target":34962
		},
		{
			"buffer":0,
			"byteLength":32,
			"byteOffset":40128,
			"target":34962
		},
		{
			"buffer":0,
			"byteLength":48,
			"byteOffset":40160,
			"target":34962
		},
		{
			"buffer":0,
			"byteLength":2880,
			"byteOffset":40208,
			"target":34962
		},
		{
			"buffer":0,
			"byteLength":1920,
			"byteOffset":43088,
			"target":34962
		},
		{
			"buffer":0,
			"byteLength":2880,
			"byteOffset":45008,
			"target":34962
		},
		{
			"buffer":0,
			"byteLength":1536,
			"byteOffset":47888,
			"target":34962
		},
		{
			"buffer":0,
			"byteLength":1024,
			"byteOffset":49424,
			"target":34962
		},
		{
			"buffer":0,
			"byteLength":1536,
			"byteOffset":50448,
			"target":34962
		},
		{
			"buffer":0,
			"byteLength":2304,
			"byteOffset":51984,
			"target":34962
		},
		{
			"buffer":0,
			"byteLength":1536,
			"byteOffset":54288,
			"target":34962
		},
		{
			"buffer":0,
			"byteLength":2304,
			"byteOffset":55824,
			"target":34962
		},
		{
			"buffer":0,
			"byteLength":288,
			"byteOffset":58128,
			"target":34962
		},
		{
			"buffer":0,
			"byteLength":192,
			"byteOffset":58416,
			"target":34962
		},
		{
			"buffer":0,
			"byteLength":288,
			"byteOffset":58608,
			"target":34962
		},
		{
			"buffer":0,
			"byteLength":48,
			"byteOffset":58896,
			"target":34962
		},
		{
			"buffer":0,
			"byteLength":32,
			"byteOffset":58944,
			"target":34962
		},
		{
			"buffer":0,
			"byteLength":48,
			"byteOffset":58976,
			"target":34962
		},
		{
			"buffer":0,
			"byteLength":2880,
			"byteOffset":59024,
			"target":34962
		},
		{
			"buffer":0,
			"byteLength":1920,
			"byteOffset":61904,
			"target":34962
		},
		{
			"buffer":0,
			"byteLength":2880,
			"byteOffset":63824,
			"target":34962
		},
		{
			"buffer":0,
			"byteLength":1536,
			"byteOffset":66704,
			"target":34962
		},
		{
			"buffer":0,
			"byteLength":1024,
			"byteOffset":68240,
			"target":34962
		},
		{
			"buffer":0,
			"byteLength":1536,
			"byteOffset":69264,
			"target":34962
		},
		{
			"buffer":0,
			"byteLength":2304,
			"byteOffset":70800,
			"target":34962
		},
		{
			"buffer":0,
			"byteLength":1536,
			"byteOffset":73104,
			"target":34962
		},
		{
			"buffer":0,
			"byteLength":2304,
			"byteOffset":74640,
			"target":34962
		}
	],
	"buffers":[
		{
			"byteLength":76944,
			"uri":"data:application/octet-stream;base64,"
		}
	]
}
